HIERARCHY
ROOT Hips
{
	OFFSET	0.00	0.00	0.00
	CHANNELS 6 Xposition Yposition Zposition Zrotation Xrotation Yrotation
	JOINT LeftUpLeg
	{
		OFFSET	 0.126116	-0.014019	-0.065224
		CHANNELS 3 Zrotation Xrotation Yrotation
		JOINT LeftLeg
		{
			OFFSET	 0.000000	 0.000000	 0.569914
			CHANNELS 3 Zrotation Xrotation Yrotation
			JOINT LeftFoot
			{
				OFFSET	 0.000000	 0.000000	 0.544423
				CHANNELS 3 Zrotation Xrotation Yrotation
				JOINT LeftToeBase
				{
					OFFSET	 0.000000	 0.000000	 0.207117
					CHANNELS 3 Zrotation Xrotation Yrotation
					End Site
					{
						OFFSET	 0.000000	 0.000000	 0.207117
					}
				}
			}
		}
	}
	JOINT RightUpLeg
	{
		OFFSET	-0.124023	-0.008373	-0.065224
		CHANNELS 3 Zrotation Xrotation Yrotation
		JOINT RightLeg
		{
			OFFSET	 0.000000	 0.000000	 0.570047
			CHANNELS 3 Zrotation Xrotation Yrotation
			JOINT RightFoot
			{
				OFFSET	 0.000000	 0.000000	 0.544354
				CHANNELS 3 Zrotation Xrotation Yrotation
				JOINT RightToeBase
				{
					OFFSET	 0.000000	 0.000000	 0.207540
					CHANNELS 3 Zrotation Xrotation Yrotation
					End Site
					{
						OFFSET	 0.000000	 0.000000	 0.207540
					}
				}
			}
		}
	}
	JOINT Spine
	{
		OFFSET	 0.000184	-0.007763	 0.117403
		CHANNELS 3 Zrotation Xrotation Yrotation
		JOINT Spine1
		{
			OFFSET	 0.000000	 0.000000	 0.137269
			CHANNELS 3 Zrotation Xrotation Yrotation
			JOINT Spine2
			{
				OFFSET	 0.000000	 0.000000	 0.156879
				CHANNELS 3 Zrotation Xrotation Yrotation
				JOINT LeftShoulder
				{
					OFFSET	 0.080501	-0.002496	 0.160144
					CHANNELS 3 Zrotation Xrotation Yrotation
					JOINT LeftArm
					{
						OFFSET	 0.000000	 0.000000	 0.164363
						CHANNELS 3 Zrotation Xrotation Yrotation
						JOINT LeftForeArm
						{
							OFFSET	 0.000000	 0.000000	 0.364576
							CHANNELS 3 Zrotation Xrotation Yrotation
							JOINT LeftHand
							{
								OFFSET	 0.000000	 0.000000	 0.360812
								CHANNELS 3 Zrotation Xrotation Yrotation
								JOINT LeftHandIndex1
								{
									OFFSET	 0.000000	 0.000000	 0.086006
									CHANNELS 3 Zrotation Xrotation Yrotation
									JOINT LeftHandIndex2
									{
										OFFSET	 0.000000	 0.000000	 0.047236
										CHANNELS 3 Zrotation Xrotation Yrotation
										JOINT LeftHandIndex3
										{
											OFFSET	-0.004284	-0.000551	 0.038166
											CHANNELS 3 Zrotation Xrotation Yrotation
											End Site
											{
												OFFSET	-0.004284	-0.000551	 0.038166
											}
										}
									}
								}
							}
						}
					}
				}
				JOINT Neck
				{
					OFFSET	 0.000000	 0.000000	 0.176489
					CHANNELS 3 Zrotation Xrotation Yrotation
					JOINT Head
					{
						OFFSET	 0.000000	-0.001747	 0.077940
						CHANNELS 3 Zrotation Xrotation Yrotation
						End Site
						{
							OFFSET	 0.000000	-0.001747	 0.077940
						}
					}
				}
				JOINT RightShoulder
				{
					OFFSET	-0.080363	 0.000306	 0.159706
					CHANNELS 3 Zrotation Xrotation Yrotation
					JOINT RightArm
					{
						OFFSET	 0.000000	 0.000000	 0.164196
						CHANNELS 3 Zrotation Xrotation Yrotation
						JOINT RightForeArm
						{
							OFFSET	 0.000000	 0.000000	 0.365611
							CHANNELS 3 Zrotation Xrotation Yrotation
							JOINT RightHand
							{
								OFFSET	 0.000000	 0.000000	 0.360648
								CHANNELS 3 Zrotation Xrotation Yrotation
								JOINT RightHandIndex1
								{
									OFFSET	 0.000000	 0.000000	 0.069977
									CHANNELS 3 Zrotation Xrotation Yrotation
									JOINT RightHandIndex2
									{
										OFFSET	 0.000000	 0.000000	 0.052305
										CHANNELS 3 Zrotation Xrotation Yrotation
										JOINT RightHandIndex3
										{
											OFFSET	 0.009002	-0.000782	 0.042196
											CHANNELS 3 Zrotation Xrotation Yrotation
											End Site
											{
												OFFSET	 0.009002	-0.000782	 0.042196
											}
										}
									}
								}
							}
						}
					}
				}
			}
		}
	}
}
MOTION
Frames:    5
Frame Time: 0.03333334
-0.031332	 0.233237	 1.089597	 2.444074	 32.110880	-7.837101	 40.550660	-73.926370	-145.494700	 4.538373	-64.286440	 4.466346	 30.954190	 71.058390	-39.605850	-2.385832	 28.452790	-0.000001	 27.923350	-79.307030	-149.146900	-13.780280	-67.579920	-7.990146	-1.892954	 70.405530	 22.664750	 2.384659	 28.388700	-0.000001	 8.338273	 14.060610	 0.990363	-1.850357	 16.723420	 1.741948	-3.215235	 1.511011	 3.380512	-99.078700	 68.191310	 157.063900	 3.901871	-7.489405	-51.083070	-0.466287	-0.606104	-5.460329	-0.566841	-46.536930	 0.167852	-2.027600	 6.559038	 9.033609	-5.188889	 0.308190	 3.541030	-5.234859	 0.342567	 0.430617	 0.134549	 16.384720	-5.438038	-1.915396	-25.401590	-1.866257	 97.399580	 64.584560	-159.518200	-10.097810	 6.013458	 54.986510	-13.204290	-3.808657	 33.421260	-17.048790	-43.927980	-4.489748	 1.803333	 3.979147	-15.098590	 4.898592	 3.004813	-9.310344	 5.224449	 0.395017	 2.014677
-0.027931	 0.231241	 1.109470	 2.137982	 30.960760	-7.180584	 35.279510	-71.322930	-151.043800	 3.945101	-61.404770	 3.831315	 29.084490	 70.006720	-37.696000	-2.385832	 28.452790	-0.000001	 16.621440	-76.767370	-159.753400	-13.023390	-64.557620	-7.121431	-1.835450	 69.294010	 22.443530	 2.384659	 28.388700	-0.000001	 2.199213	 13.476360	 0.958295	-1.788195	 16.508670	 1.807237	-2.458766	 0.706951	 2.747066	-98.616680	 68.639330	 157.822100	 4.755304	-4.735610	-51.778420	 2.718457	-1.224507	-7.219723	-1.086355	-41.071140	-2.943603	-2.027600	 6.559038	 9.033609	-5.188889	 0.308190	 3.541030	-5.234859	 0.342567	 0.430617	-0.386101	 12.203760	-4.342959	-1.320003	-21.278220	-1.897145	 97.156210	 64.205780	-160.499600	-11.465630	 6.075031	 53.120410	-14.634080	-5.856568	 38.476200	-16.418040	-38.272380	-0.216323	 1.803333	 3.979147	-15.098590	 4.898592	 3.004813	-9.310344	 5.224449	 0.395017	 2.014677
-0.024077	 0.229244	 1.129652	 1.864055	 29.703140	-6.452735	 31.035680	-68.404580	-155.615500	 3.476850	-58.346670	 3.315611	 27.480650	 69.072070	-35.776580	-2.385832	 28.452790	-0.000001	 9.151619	-73.623500	-166.614600	-12.469700	-61.327840	-6.433472	-1.233368	 68.361340	 21.627070	 2.384659	 28.388700	-0.000001	-4.253115	 12.800150	 0.887340	-1.815491	 16.379340	 1.916750	-1.688389	-0.326133	 2.083302	-97.893380	 69.590700	 158.664700	 5.769507	-1.449914	-52.604220	 5.912273	-2.007188	-8.910045	-1.816549	-35.803550	-6.465239	-2.027600	 6.559038	 9.033609	-5.188889	 0.308190	 3.541030	-5.234859	 0.342567	 0.430617	-0.804340	 7.108803	-3.221792	-0.745939	-16.338350	-2.122504	 96.846920	 64.181220	-161.319700	-13.001600	 6.847995	 51.302510	-16.018790	-8.429640	 43.542210	-16.182500	-32.349480	 3.719133	 1.803333	 3.979147	-15.098590	 4.898592	 3.004813	-9.310344	 5.224449	 0.395017	 2.014677
-0.020630	 0.227186	 1.148552	 1.588179	 28.363810	-5.725990	 27.566540	-65.412850	-159.426100	 3.188774	-55.379110	 2.968183	 25.772520	 68.317750	-33.756960	-2.385833	 28.452760	 0.000004	 3.955615	-70.283300	-171.239800	-12.145740	-58.147250	-5.953630	-0.761878	 67.558900	 20.901890	 2.384659	 28.388700	-0.000001	-10.420910	 12.165690	 0.846969	-1.874035	 16.346290	 2.058443	-0.952696	-1.495252	 1.465977	-96.845800	 71.200580	 159.490700	 6.830873	 2.278041	-53.797480	 8.899346	-2.875393	-10.409850	-2.666278	-31.325290	-9.788887	-2.027600	 6.559038	 9.033609	-5.188889	 0.308190	 3.541030	-5.234859	 0.342567	 0.430617	-1.089394	 1.608426	-2.372275	-0.146023	-11.060830	-2.320781	 96.372700	 64.814410	-162.025800	-14.480870	 8.494412	 50.052310	-17.215410	-11.258670	 48.072770	-16.055930	-27.185110	 6.908150	 1.803333	 3.979147	-15.098590	 4.898592	 3.004813	-9.310344	 5.224449	 0.395017	 2.014677
-0.017967	 0.224920	 1.166279	 1.312426	 26.945150	-5.030381	 24.782700	-62.359120	-162.613800	 3.117199	-52.507610	 2.805110	 23.885320	 67.645230	-31.667880	-2.385833	 28.452760	 0.000004	 0.053668	-66.845550	-174.593200	-12.027290	-55.020230	-5.646896	-0.530397	 66.794270	 20.496420	 2.384659	 28.388700	-0.000001	-16.196470	 11.611650	 0.883029	-1.863646	 16.433070	 2.143764	-0.239928	-2.767864	 0.958042	-95.278180	 73.716070	 160.181500	 7.927660	 6.633360	-55.763280	 11.728320	-3.805331	-11.749960	-3.745228	-27.727680	-12.641660	-2.027600	 6.559038	 9.033609	-5.188889	 0.308190	 3.541030	-5.234859	 0.342567	 0.430617	-1.322951	-4.097029	-2.143643	 0.561859	-5.591061	-2.175675	 95.571210	 66.355740	-162.849000	-15.845140	 11.034710	 49.777180	-18.179350	-14.201290	 52.064910	-15.690860	-23.328790	 9.345239	 1.803333	 3.979147	-15.098590	 4.898592	 3.004813	-9.310344	 5.224449	 0.395017	 2.014677
